<svg xmlns="http://www.w3.org/2000/svg" xmlns:xlink="http://www.w3.org/1999/xlink" version="1.1" x="0px" y="0px" viewBox="0 0 48 60" style="enable-background:new 0 0 48 48;" xml:space="preserve"><g><path d="M24,0C10.745,0,0,10.745,0,24s10.745,24,24,24s24-10.745,24-24S37.255,0,24,0z M35.5,29h-23c-0.276,0-0.5-0.225-0.5-0.5   s0.224-0.5,0.5-0.5h23c0.275,0,0.5,0.225,0.5,0.5S35.775,29,35.5,29z M35.5,24h-23c-0.276,0-0.5-0.224-0.5-0.5s0.224-0.5,0.5-0.5   h23c0.275,0,0.5,0.224,0.5,0.5S35.775,24,35.5,24z M35.5,19h-23c-0.276,0-0.5-0.224-0.5-0.5s0.224-0.5,0.5-0.5h23   c0.275,0,0.5,0.224,0.5,0.5S35.775,19,35.5,19z"/></g><text x="0" y="63" fill="#000000" font-size="5px" font-weight="bold" font-family="'Helvetica Neue', Helvetica, Arial-Unicode, Arial, Sans-serif">Created by Norbert Kucsera</text><text x="0" y="68" fill="#000000" font-size="5px" font-weight="bold" font-family="'Helvetica Neue', Helvetica, Arial-Unicode, Arial, Sans-serif">from the Noun Project</text></svg>